
<svg xmlns="http://www.w3.org/2000/svg" version="1.1" xmlns:xlink="http://www.w3.org/1999/xlink" preserveAspectRatio="none" x="0px" y="0px" width="100px" height="300px" viewBox="0 0 100 300">
<defs>
<g id="Layer1_0_FILL">
<path fill="#FFFFFF" stroke="none" d="
M 99 29
L 99 1 1 1 1 29 99 29
M 99 59
L 99 31 1 31 1 59 99 59
M 1.2 89
L 1.2 61 1 61 1 89 1.2 89
M 99.2 89
L 99.2 61 1.2 61 1.2 89 99.2 89
M 1.2 119
L 99.2 119 99.2 91 1.2 91 1.2 119
M 1.2 91
L 1 91 1 119 1.2 119 1.2 91
M 1 121
L 1 149 98.8 149 99 149 99 121 1 121
M 1 149
L 1 149.35 98.8 149.35 98.8 149 1 149
M 1 179
L 1 179.25 98.8 179.25 98.8 179 1 179
M 1 151
L 1 179 98.8 179 99 179 99 151 1 151
M 98.8 209.15
L 98.8 209 1 209 1 209.15 98.8 209.15
M 99 181
L 1 181 1 209 98.8 209 99 209 99 181
M 99 239
L 99 211 1 211 1 239 99 239
M 99 269
L 99 241 1 241 1 269 99 269
M 99 271
L 1 271 1 299 99 299 99 271 Z"/>
</g>

<path id="Layer1_0_1_STROKES" stroke="#999999" stroke-width="2" stroke-linejoin="round" stroke-linecap="square" fill="none" d="
M 99 1
L 99 29 1 29 1 1 99 1 Z
M 1.2 61
L 99.2 61 99.2 89 1.2 89 1 89 1 61 1.2 61 1.2 89
M 1 149
L 1 121 99 121 99 149 98.8 149 98.8 149.35 1 149.35 1 149 98.8 149
M 1 181
L 99 181 99 209 98.8 209 98.8 209.15 1 209.15 1 209 1 181 Z
M 1 269
L 1 241 99 241 99 269 1 269 Z
M 98.8 209
L 1 209"/>

<path id="Layer1_0_2_STROKES" stroke="#000000" stroke-width="2" stroke-linejoin="round" stroke-linecap="square" fill="none" d="
M 99 31
L 99 59 1 59 1 31 99 31 Z
M 1 119
L 1 91 1.2 91 99.2 91 99.2 119 1.2 119 1 119 Z
M 98.8 179.25
L 1 179.25 1 179 1 151 99 151 99 179 98.8 179 98.8 179.25 Z
M 1.2 119
L 1.2 91
M 98.8 179
L 1 179
M 99 239
L 1 239 1 211 99 211 99 239 Z
M 1 299
L 1 271 99 271 99 299 1 299 Z"/>
</defs>

<g transform="matrix( 1, 0, 0, 1, 0,0) ">
<use xlink:href="#Layer1_0_FILL"/>

<use xlink:href="#Layer1_0_1_STROKES"/>

<use xlink:href="#Layer1_0_2_STROKES"/>
</g>

<g transform="matrix( 1, 0, 0, 1, 2.2,1.8) ">
<clipPath id="Mask_Mask_1">
<rect x="-2" y="2.75" width="100" height="25.25" fill="#FFFFFF" stroke="none"/>
</clipPath>

<text clip-path="url(#Mask_Mask_1)" writing-mode="lr"><tspan x="23.85" y="17.4" baseline-shift="0%" font-family="Arial" font-weight="bold" font-size="14" fill="#999999" xml:space="preserve">Gravity</tspan></text>
</g>

<g transform="matrix( 1, 0, 0, 1, 2.35,31.45) ">
<clipPath id="Mask_Mask_2">
<rect x="-2" y="2.75" width="100" height="25.25" fill="#FFFFFF" stroke="none"/>
</clipPath>

<text clip-path="url(#Mask_Mask_2)" writing-mode="lr"><tspan x="23.85" y="17.4" baseline-shift="0%" font-family="Arial" font-weight="bold" font-size="14" fill="#000000" xml:space="preserve">Gravity</tspan></text>
</g>

<g transform="matrix( 1, 0, 0, 1, 2.15,61.85) ">
<clipPath id="Mask_Mask_3">
<rect x="-2" y="2.75" width="100" height="25.25" fill="#FFFFFF" stroke="none"/>
</clipPath>

<text clip-path="url(#Mask_Mask_3)" writing-mode="lr"><tspan x="6.35" y="17.4" baseline-shift="0%" font-family="Arial" font-weight="bold" font-size="14" fill="#999999" xml:space="preserve">Air Pressure</tspan></text>
</g>

<g transform="matrix( 1, 0, 0, 1, 2.3,91.5) ">
<clipPath id="Mask_Mask_4">
<rect x="-2" y="2.75" width="100" height="25.25" fill="#FFFFFF" stroke="none"/>
</clipPath>

<text clip-path="url(#Mask_Mask_4)" writing-mode="lr"><tspan x="6.35" y="17.4" baseline-shift="0%" font-family="Arial" font-weight="bold" font-size="14" fill="#000000" xml:space="preserve">Air Pressure</tspan></text>
</g>

<g transform="matrix( 1, 0, 0, 1, 2,122.25) ">
<clipPath id="Mask_Mask_5">
<rect x="-2" y="2.75" width="100" height="25.25" fill="#FFFFFF" stroke="none"/>
</clipPath>

<text clip-path="url(#Mask_Mask_5)" writing-mode="lr"><tspan x="22.4" y="17.4" baseline-shift="0%" font-family="Arial" font-weight="bold" font-size="14" fill="#999999" xml:space="preserve">Friction</tspan></text>
</g>

<g transform="matrix( 1, 0, 0, 1, 2,152.25) ">
<clipPath id="Mask_Mask_6">
<rect x="-2" y="2.75" width="100" height="25.25" fill="#FFFFFF" stroke="none"/>
</clipPath>

<text clip-path="url(#Mask_Mask_6)" writing-mode="lr"><tspan x="22.4" y="17.4" baseline-shift="0%" font-family="Arial" font-weight="bold" font-size="14" fill="#000000" xml:space="preserve">Friction</tspan></text>
</g>

<g transform="matrix( 1, 0, 0, 1, 2,182.25) ">
<clipPath id="Mask_Mask_7">
<rect x="-2" y="2.75" width="100" height="25.25" fill="#FFFFFF" stroke="none"/>
</clipPath>

<text clip-path="url(#Mask_Mask_7)" writing-mode="lr"><tspan x="23.9" y="17.4" baseline-shift="0%" font-family="Arial" font-weight="bold" font-size="14" fill="#999999" xml:space="preserve">Normal</tspan></text>
</g>

<g transform="matrix( 1, 0, 0, 1, 2,212.25) ">
<clipPath id="Mask_Mask_8">
<rect x="-2" y="2.75" width="100" height="25.25" fill="#FFFFFF" stroke="none"/>
</clipPath>

<text clip-path="url(#Mask_Mask_8)" writing-mode="lr"><tspan x="23.9" y="17.4" baseline-shift="0%" font-family="Arial" font-weight="bold" font-size="14" fill="#000000" xml:space="preserve">Normal</tspan></text>
</g>

<g transform="matrix( 1, 0, 0, 1, 2,242.25) ">
<clipPath id="Mask_Mask_9">
<rect x="-2" y="2.75" width="100" height="25.25" fill="#FFFFFF" stroke="none"/>
</clipPath>

<text clip-path="url(#Mask_Mask_9)" writing-mode="lr"><tspan x="22.4" y="17.4" baseline-shift="0%" font-family="Arial" font-weight="bold" font-size="14" fill="#999999" xml:space="preserve">Applied</tspan></text>
</g>

<g transform="matrix( 1, 0, 0, 1, 2,272.25) ">
<clipPath id="Mask_Mask_10">
<rect x="-2" y="2.75" width="100" height="25.25" fill="#FFFFFF" stroke="none"/>
</clipPath>

<text clip-path="url(#Mask_Mask_10)" writing-mode="lr"><tspan x="22.4" y="17.4" baseline-shift="0%" font-family="Arial" font-weight="bold" font-size="14" fill="#000000" xml:space="preserve">Applied</tspan></text>
</g>
</svg>
